<svg id="Capa_1" enable-background="new 0 0 512 512" height="512" viewBox="0 0 512 512" width="512" xmlns="http://www.w3.org/2000/svg"><g id="Calendar_3_"><path d="m0 176h512v320h-512z" fill="#ffce33"/><path d="m512 80v96h-512v-96h32c0 35.199 28.801 64 64 64v-32c-17.6 0-32-14.4-32-32h128c0 35.199 28.801 64 64 64v-32c-17.6 0-32-14.4-32-32h128c0 35.199 28.801 64 64 64v-32c-17.6 0-32-14.4-32-32z" fill="#fffa50"/><path d="m160 80h-32c0-17.6-14.4-32-32-32s-32 14.4-32 32 14.4 32 32 32v32c-35.199 0-64-28.801-64-64s28.801-64 64-64 64 28.801 64 64z" fill="#ffce33"/><path d="m96 112v32c-35.199 0-64-28.801-64-64h32c0 17.6 14.4 32 32 32z" fill="#ffa65c"/><path d="m320 80h-32c0-17.6-14.4-32-32-32s-32 14.4-32 32 14.4 32 32 32v32c-35.199 0-64-28.801-64-64s28.801-64 64-64 64 28.801 64 64z" fill="#ffce33"/><path d="m256 112v32c-35.199 0-64-28.801-64-64h32c0 17.6 14.4 32 32 32z" fill="#ffa65c"/><path d="m480 80h-32c0-17.6-14.4-32-32-32s-32 14.4-32 32 14.4 32 32 32v32c-35.199 0-64-28.801-64-64s28.801-64 64-64 64 28.801 64 64z" fill="#ffce33"/><path d="m416 112v32c-35.199 0-64-28.801-64-64h32c0 17.6 14.4 32 32 32z" fill="#ffa65c"/><path d="m384 336c0-13.061-7.879-24.209-19.094-29.184 7.225-9.916 8.475-23.508 1.945-34.816-6.529-11.311-18.928-17.027-31.127-15.727 1.299-12.199-4.416-24.596-15.725-31.125s-24.9-5.279-34.816 1.945c-4.974-11.214-16.122-19.093-29.183-19.093s-24.209 7.879-29.184 19.094c-9.916-7.225-23.508-8.475-34.816-1.945s-17.023 18.926-15.725 31.125c-12.199-1.301-24.598 4.416-31.127 15.727-6.529 11.309-5.279 24.9 1.945 34.816-11.214 4.974-19.093 16.122-19.093 29.183 0 13.059 7.877 24.207 19.094 29.182-7.225 9.914-8.475 23.508-1.945 34.818 6.529 11.309 18.928 17.023 31.127 15.725-1.299 12.199 4.416 24.596 15.725 31.127 11.309 6.529 24.904 5.279 34.818-1.945 4.974 11.212 16.122 19.093 29.181 19.093s24.207-7.881 29.182-19.094c9.914 7.225 23.51 8.475 34.818 1.945 11.309-6.531 17.023-18.928 15.725-31.127 12.199 1.299 24.598-4.416 31.127-15.725 6.529-11.311 5.279-24.904-1.945-34.818 11.216-4.974 19.093-16.122 19.093-29.181z" fill="#fffa50"/><circle cx="256" cy="336" fill="#ffce33" r="64"/></g></svg>